# xmcd
#
# Track frame offsets:
# 150
# 11397
# 24992
# 36885
# 49330
# 61437
# 73812
# 86470
# 98947
# 115179
# 126107
# 136345
# 147592
# 158845
# 169382
# 181265
# 193570
# 208007
# 220257
# 231060
# 240980
# 255675
# 267515
# 278055
# 290860
# 305502
#
# Disc length: 4248 seconds
#
#
# Revision: 2
# Processed by: cddbd v1.4PL0 Copyright (c) Steve Scherf et al.
# Submitted via: FreeRIP 2.40 
#
DISCID=8710961a
DTITLE=TIMI YURO - TIMI YURO THE LOST VOICE OF SOUL
DYEAR=1900
DGENRE=Ballad
TTITLE0=HURT
TTITLE1=JUST SAY I LOVE HIM
TTITLE2=TRYING
TTITLE3=SMILE
TTITLE4=LET ME CALL YOU SWEETHEART
TTITLE5=COUNT EVERYTHING
TTITLE6=I KNOW
TTITLE7=WHAT'S A MATTER BABY
TTITLE8=ONLY LOVE ME
TTITLE9=THAT'S RIGHT, WALK ON BY
TTITLE10=SHOULD I EVER LOVE AGAIN
TTITLE11=THE LOVE OF A BOY
TTITLE12=I AIN'T GONNA CRY NO MORE
TTITLE13=INSULT TO INJURY
TTITLE14=MAKE THE WORLD GO AWAY
TTITLE15=GOTTA TRAVEL ON
TTITLE16=DOWN IN THE VALLEY
TTITLE17=LEAVIN' ON YOUR MIND
TTITLE18=SHE'S GOT YOU
TTITLE19=I'D FIGHT THE WORLD
TTITLE20=PERMANENTLY LONELY
TTITLE21=ARE YOU SURE?
TTITLE22=A LEGEND IN MY TIME
TTITLE23=CALL ME
TTITLE24=SOMETHING BAD ON MY MIND
TTITLE25=IT'LL NEVER BE OVER FOR ME
EXTD=
EXTT0=
EXTT1=
EXTT2=
EXTT3=
EXTT4=
EXTT5=
EXTT6=
EXTT7=
EXTT8=
EXTT9=
EXTT10=
EXTT11=
EXTT12=
EXTT13=
EXTT14=
EXTT15=
EXTT16=
EXTT17=
EXTT18=
EXTT19=
EXTT20=
EXTT21=
EXTT22=
EXTT23=
EXTT24=
EXTT25=
PLAYORDER=
